<?xml version="1.0" encoding="utf-8"?>
<!-- Generator: Adobe Illustrator 23.0.2, SVG Export Plug-In . SVG Version: 6.00 Build 0)  -->
<svg version="1.1" id="レイヤー_1" xmlns="http://www.w3.org/2000/svg" xmlns:xlink="http://www.w3.org/1999/xlink" x="0px"
	 y="0px" viewBox="0 0 200 200" style="enable-background:new 0 0 200 200;" xml:space="preserve">
<style type="text/css">
	.st0{fill:#EE817E;}
</style>
<path class="st0" d="M182.86,28.66c-20.78-20.78-54.48-20.78-75.26,0c-3.01,3.01-5.53,6.31-7.66,9.78c-2.1-3.37-4.6-6.56-7.53-9.49
	c-20.78-20.78-54.48-20.78-75.26,0s-20.78,54.48,0,75.26c0.48,0.48,0.98,0.94,1.48,1.4c-0.02,0.01-0.03,0.02-0.05,0.02l81.29,81.29
	l82.85-82.85c0,0,0,0,0,0c0.05-0.05,0.1-0.09,0.15-0.14C203.64,83.14,203.64,49.45,182.86,28.66z"/>
</svg>
